/* XPM */
static char * cobblestone_xpm[] = {
"16 16 31 1",
" 	c None",
".	c #C4C7C4",
"+	c #868686",
"@	c #414440",
"#	c #000100",
"$	c #414441",
"%	c #868786",
"&	c #616262",
"*	c #636363",
"=	c #000000",
"-	c #010101",
";	c #414341",
">	c #565656",
",	c #414340",
"'	c #424441",
")	c #858685",
"!	c #404340",
"~	c #B5B8B5",
"{	c #C3C6C3",
"]	c #C2C7C3",
"^	c #858585",
"/	c #C4C6C3",
"(	c #7F807F",
"_	c #40433F",
":	c #C5C7C4",
"<	c #C4C6C4",
"[	c #858686",
"}	c #878787",
"|	c #C5C8C5",
"1	c #C5C7C5",
"2	c #A6A6A6",
"....++@@@...+@.+",
"..++#$..@%+&*=++",
"$++-;..+==+>-,$+",
"@=='.)++=!==$~~@",
"..$@.)+=!{.]$%+@",
".+^@+++=/.+(++==",
"+++@@==,@++++++_",
"++=$/.,@@,=++-+:",
"+='..+$].)@--=<.",
"+;..+=]%.[+@!/++",
"$:}++=]%}++=@@++",
"@@>++=[+++=,.@$=",
".|-===;+==1.^+@'",
".2,...'=$..)+++=",
"++@.+++@@$++++==",
"+++$===@:),@==@@"};
