/* XPM */
static char * dirt_xpm[] = {
"16 16 14 1",
" 	c None",
".	c #CF9A6E",
"+	c #6D4E3C",
"@	c #88654F",
"#	c #9F7455",
"$	c #9E7455",
"%	c #89654F",
"&	c #CF9A6F",
"*	c #88644E",
"=	c #9F7454",
"-	c #859A9F",
";	c #9E7456",
">	c #9F7355",
",	c #9F7356",
"..+.@+#.$.%#..%&",
"#.*#+%#.#+=-%+$@",
".%%&.;$$&+$..$+%",
"%#%$$+$%#+$.*-.;",
".#.#$$$$$$#&+$.+",
";$$.+.%$&+..$..+",
"$#+$&.$#%$++&.+&",
".+$%$.+#+-#>.###",
".#.$#$.,&.&@+&#+",
"+$$+$%$+##@$++..",
"=$-.++$.+$###+$+",
".$$.$$#.$&&&&.+%",
".%$.#.&&$$.&+...",
"%%#.$%$+&$+++$%,",
".+%%#.+#.$&+#$+$",
"%+%$$$$$;$-++.$$"};
