/* XPM */
static char * grass_top_xpm[] = {
"32 32 237 2",
"  	c None",
". 	c #58842B",
"+ 	c #487323",
"@ 	c #538429",
"# 	c #517B29",
"$ 	c #4F7625",
"% 	c #4B7426",
"& 	c #598B2A",
"* 	c #3C641E",
"= 	c #467225",
"- 	c #52882C",
"; 	c #53852B",
"> 	c #4D7627",
", 	c #578B29",
"' 	c #3F691F",
") 	c #5C902E",
"! 	c #496D23",
"~ 	c #487824",
"{ 	c #51812B",
"] 	c #5D902B",
"^ 	c #3E611F",
"/ 	c #4C7124",
"( 	c #4E7E28",
"_ 	c #517827",
": 	c #4E7826",
"< 	c #53882D",
"[ 	c #58892E",
"} 	c #4A7325",
"| 	c #5F912E",
"1 	c #3E6721",
"2 	c #4E7525",
"3 	c #548228",
"4 	c #4A7324",
"5 	c #436B24",
"6 	c #50872C",
"7 	c #538B2A",
"8 	c #436320",
"9 	c #40651F",
"0 	c #598A2E",
"a 	c #486E21",
"b 	c #5B8A2A",
"c 	c #54812C",
"d 	c #51832C",
"e 	c #527928",
"f 	c #598F2D",
"g 	c #5E8E2B",
"h 	c #3B621F",
"i 	c #517E29",
"j 	c #53882C",
"k 	c #497828",
"l 	c #53832C",
"m 	c #4C7322",
"n 	c #487425",
"o 	c #40611F",
"p 	c #508229",
"q 	c #42681F",
"r 	c #3C6320",
"s 	c #4C7225",
"t 	c #548C2A",
"u 	c #507D2A",
"v 	c #5F8F2C",
"w 	c #456621",
"x 	c #476923",
"y 	c #447022",
"z 	c #4A6E24",
"A 	c #598D2B",
"B 	c #5A8929",
"C 	c #55882A",
"D 	c #518A29",
"E 	c #487524",
"F 	c #55812A",
"G 	c #5E9230",
"H 	c #467226",
"I 	c #578D2B",
"J 	c #466F23",
"K 	c #5E9131",
"L 	c #4B7827",
"M 	c #517D24",
"N 	c #4A7122",
"O 	c #406520",
"P 	c #457221",
"Q 	c #558B2B",
"R 	c #487727",
"S 	c #3F6220",
"T 	c #4E852A",
"U 	c #5A872C",
"V 	c #43671F",
"W 	c #52872B",
"X 	c #568C2A",
"Y 	c #497526",
"Z 	c #518428",
"` 	c #4C7D24",
" .	c #4B7727",
"..	c #57942D",
"+.	c #477626",
"@.	c #497827",
"#.	c #416920",
"$.	c #507728",
"%.	c #538127",
"&.	c #5A8D2A",
"*.	c #538629",
"=.	c #467227",
"-.	c #3F6822",
";.	c #4E8327",
">.	c #426C20",
",.	c #436B22",
"'.	c #467527",
").	c #426620",
"!.	c #426721",
"~.	c #497625",
"{.	c #4D812C",
"].	c #487122",
"^.	c #4F7A2A",
"/.	c #416420",
"(.	c #5C8E2B",
"_.	c #61942E",
":.	c #446E23",
"<.	c #538226",
"[.	c #487125",
"}.	c #568229",
"|.	c #497925",
"1.	c #558C2E",
"2.	c #446C23",
"3.	c #466C22",
"4.	c #3D6320",
"5.	c #4D7D29",
"6.	c #568D2F",
"7.	c #53872A",
"8.	c #57832A",
"9.	c #5D912C",
"0.	c #4D7628",
"a.	c #457426",
"b.	c #497B26",
"c.	c #3F6721",
"d.	c #52882A",
"e.	c #40631F",
"f.	c #5B882B",
"g.	c #537F28",
"h.	c #4B7126",
"i.	c #598629",
"j.	c #3E631E",
"k.	c #578E29",
"l.	c #4F8628",
"m.	c #5B8D2A",
"n.	c #56872B",
"o.	c #548A2D",
"p.	c #4C7823",
"q.	c #426A23",
"r.	c #4D822A",
"s.	c #3F671E",
"t.	c #548728",
"u.	c #4C7526",
"v.	c #578928",
"w.	c #537D27",
"x.	c #4D7A29",
"y.	c #55882B",
"z.	c #3F6921",
"A.	c #59862B",
"B.	c #4E7F26",
"C.	c #5E8B30",
"D.	c #5A8C2B",
"E.	c #528828",
"F.	c #446E24",
"G.	c #5A892D",
"H.	c #53842B",
"I.	c #3E6320",
"J.	c #4C7C25",
"K.	c #416D20",
"L.	c #3F6A22",
"M.	c #5B8D2C",
"N.	c #508126",
"O.	c #5A892B",
"P.	c #4C7926",
"Q.	c #4C7928",
"R.	c #40631E",
"S.	c #4B7B27",
"T.	c #41671E",
"U.	c #507A24",
"V.	c #4F7627",
"W.	c #497726",
"X.	c #497225",
"Y.	c #416821",
"Z.	c #4D8429",
"`.	c #4C7C28",
" +	c #558227",
".+	c #52822C",
"++	c #3E651F",
"@+	c #417020",
"#+	c #406822",
"$+	c #55872D",
"%+	c #517F28",
"&+	c #436920",
"*+	c #3E611E",
"=+	c #4D8228",
"-+	c #598B2C",
";+	c #55832B",
">+	c #53842C",
",+	c #558426",
"'+	c #538C2D",
")+	c #486C22",
"!+	c #53892B",
"~+	c #4E7C26",
"{+	c #446A21",
"]+	c #59842B",
"^+	c #4D7A25",
"/+	c #4A7724",
"(+	c #538A2D",
"_+	c #426822",
":+	c #4F7927",
"<+	c #406220",
"[+	c #5F8F2B",
"}+	c #446923",
"|+	c #466D22",
"1+	c #4B7B25",
"2+	c #598F31",
"3+	c #5A912C",
"4+	c #558128",
"5+	c #487324",
"6+	c #426221",
"7+	c #537F2A",
"8+	c #417021",
"9+	c #598B2B",
"0+	c #568E2D",
"a+	c #5D912F",
"b+	c #4E7825",
"c+	c #476823",
"d+	c #578D2F",
"e+	c #4B7C2A",
"f+	c #4E7927",
"g+	c #58902D",
"h+	c #3B631D",
"i+	c #4E7526",
"j+	c #578F2A",
"k+	c #497A23",
"l+	c #4A7C25",
"m+	c #4B7523",
"n+	c #497226",
". . + + @ @ # # $ $ % % & & * * = = - - ; ; > > , , ' ' ) ) ! ! ",
". . + + @ @ # # $ $ % % & & * * = = - - ; ; > > , , ' ' ) ) ! ! ",
"~ ~ { { ] ] ^ ^ / / @ @ ( ( _ _ : : < < [ [ } } | | 1 1 2 2 3 3 ",
"~ ~ { { ] ] ^ ^ / / @ @ ( ( _ _ : : < < [ [ } } | | 1 1 2 2 3 3 ",
"4 4 5 5 6 6 7 7 8 8 9 9 0 0 a a b b c c d d e e f f g g h h i i ",
"4 4 5 5 6 6 7 7 8 8 9 9 0 0 a a b b c c d d e e f f g g h h i i ",
"j j k k + + l l m m n n o o p p q q r r s s t t 7 7 u u v v w w ",
"j j k k + + l l m m n n o o p p q q r r s s t t 7 7 u u v v w w ",
"x x y y z z A A B B C C D D E E ) ) F F G G H H I I J J K K L L ",
"x x y y z z A A B B C C D D E E ) ) F F G G H H I I J J K K L L ",
"M M N N O O P P Q Q R R S S T T U U V V W W X X Y Y Z Z ` `  . .",
"M M N N O O P P Q Q R R S S T T U U V V W W X X Y Y Z Z ` `  . .",
"....+.+.@.@.#.#.$.$.%.%.&.&.*.*.=.=.-.-.;.;.>.>.,.,.'.'.).).!.!.",
"....+.+.@.@.#.#.$.$.%.%.&.&.*.*.=.=.-.-.;.;.>.>.,.,.'.'.).).!.!.",
"~.~.{.{.].].^.^././.(.(._._.U U :.:.<.<.[.[.}.}.|.|.1.1.2.2.3.3.",
"~.~.{.{.].].^.^././.(.(._._.U U :.:.<.<.[.[.}.}.|.|.1.1.2.2.3.3.",
"4.4.5.5.6.6.7.7.I I 8.8.9.9.0.0.a.a.b.b.c.c.G G d.d.e.e.f.f.g.g.",
"4.4.5.5.6.6.7.7.I I 8.8.9.9.0.0.a.a.b.b.c.c.G G d.d.e.e.f.f.g.g.",
"h.h.i.i.j.j.k.k.l.l.m.m.n.n.o.o.p.p.q.q.r.r././.s.s.t.t.[.[.u.u.",
"h.h.i.i.j.j.k.k.l.l.m.m.n.n.o.o.p.p.q.q.r.r././.s.s.t.t.[.[.u.u.",
"v.v.w.w.x.x.y.y.z.z.A.A.B.B.C.C.D.D.E.E.F.F.G.G.H.H.I.I.J.J.! ! ",
"v.v.w.w.x.x.y.y.z.z.A.A.B.B.C.C.D.D.E.E.F.F.G.G.H.H.I.I.J.J.! ! ",
"K.K.L.L.M.M.N.N.e.e.! ! O.O.P.P.Q.Q.R.R.S.S.T.T.6 6 ( ( U.U.V.V.",
"K.K.L.L.M.M.N.N.e.e.! ! O.O.P.P.Q.Q.R.R.S.S.T.T.6 6 ( ( U.U.V.V.",
"W.W.X.X.Y.Y.Z.Z.`.`. + +.+.+++++@+@+].].#+#+$+$+%+%+&+&+*+*+=+=+",
"W.W.X.X.Y.Y.Z.Z.`.`. + +.+.+++++@+@+].].#+#+$+$+%+%+&+&+*+*+=+=+",
"-+-+;+;+j.j.>+>+,+,+'+'+)+)+!+!+~+~+{+{+]+]+^+^+/+/+(+(+_+_+:+:+",
"-+-+;+;+j.j.>+>+,+,+'+'+)+)+!+!+~+~+{+{+]+]+^+^+/+/+(+(+_+_+:+:+",
"<+<+[+[+}+}+|+|+V V 1+1+2+2+3+3+4+4+5+5+6+6+7+7+8+8+9+9+(+(+0+0+",
"<+<+[+[+}+}+|+|+V V 1+1+2+2+3+3+4+4+5+5+6+6+7+7+8+8+9+9+(+(+0+0+",
"a+a+b+b+E E c+c+f f d+d+e+e+f+f+g+g+h+h+i+i+j+j+k+k+l+l+m+m+n+n+",
"a+a+b+b+E E c+c+f f d+d+e+e+f+f+g+g+h+h+i+i+j+j+k+k+l+l+m+m+n+n+"};
