/* XPM */
static char * grass_side_xpm[] = {
"32 32 63 1",
" 	c None",
".	c #6C9E43",
"+	c #6E9748",
"@	c #79AD4A",
"#	c #6E9846",
"$	c #79A84A",
"%	c #74B04C",
"&	c #6FA246",
"*	c #709747",
"=	c #75A64B",
"-	c #699D48",
";	c #75A64D",
">	c #76A849",
",	c #699B44",
"'	c #6C9547",
")	c #77A84C",
"!	c #6B9847",
"~	c #77A648",
"{	c #6F9945",
"]	c #74A84D",
"^	c #71A749",
"/	c #78AB4F",
"(	c #73A949",
"_	c #6FA649",
":	c #6D9A45",
"<	c #79A44B",
"[	c #79AF4D",
"}	c #694D37",
"|	c #689842",
"1	c #7AA74C",
"2	c #7CAA50",
"3	c #70A04A",
"4	c #679C42",
"5	c #6A9F45",
"6	c #6E9C44",
"7	c #72A348",
"8	c #739F49",
"9	c #719847",
"0	c #6C9B4A",
"a	c #6E9B46",
"b	c #70A549",
"c	c #75AF4B",
"d	c #77A84D",
"e	c #72AB49",
"f	c #73A04A",
"g	c #719F45",
"h	c #77A447",
"i	c #6D4E3C",
"j	c #75AB4B",
"k	c #9E7455",
"l	c #75A849",
"m	c #6F9A4A",
"n	c #CF9A6E",
"o	c #9F7455",
"p	c #CF9A6F",
"q	c #73A34D",
"r	c #89654F",
"s	c #859A9F",
"t	c #9F7355",
"u	c #9F7356",
"v	c #88654F",
"w	c #9F7454",
"x	c #9E7456",
"..++@@##$$%%&&**==--;;>>,,''))!!",
"..++@@##$$%%&&**==--;;>>,,''))!!",
"~~{{]]^^//((__::<<[[}}||11223311",
"~~{{]]^^//((__::<<[[}}||11223311",
"44;;}}5566}}778899}}}}00aabbccdd",
"44;;}}5566}}778899}}}}00aabbccdd",
"eeff}}gghhii}}jj}}}}kk}}}}}}}}ll",
"eeff}}gghhii}}jj}}}}kk}}}}}}}}ll",
"mm}}nn}}}}kkkk}}kkkkooppiikknn}}",
"mm}}nn}}}}kkkk}}kkkkooppiikknn}}",
"qqkkkknniinnrrkkppiinnnnkknnnn}}",
"qqkkkknniinnrrkkppiinnnnkknnnn}}",
"kkooiikkppnnkkoorrkkiiiippnniipp",
"kkooiikkppnnkkoorrkkiiiippnniipp",
"nniikkrrkknniiooiissoottnnoooooo",
"nniikkrrkknniiooiissoottnnoooooo",
"nnoonnkkookknnuuppnnppvviippooii",
"nnoonnkkookknnuuppnnppvviippooii",
"iikkkkiikkrrkkiioooovvkkiiiinnnn",
"iikkkkiikkrrkkiioooovvkkiiiinnnn",
"wwkkssnniiiikknniikkooooooiikkii",
"wwkkssnniiiikknniikkooooooiikkii",
"nnkkkknnkkkkoonnkkppppppppnniirr",
"nnkkkknnkkkkoonnkkppppppppnniirr",
"nnrrkknnoonnppppkkkknnppiinnnnnn",
"nnrrkknnoonnppppkkkknnppiinnnnnn",
"rrrroonnkkrrkkiippkkiiiiiikkrruu",
"rrrroonnkkrrkkiippkkiiiiiikkrruu",
"nniirrrroonniioonnkkppiiookkiikk",
"nniirrrroonniioonnkkppiiookkiikk",
"rriirrkkkkkkkkkkxxkkssiiiinnkkkk",
"rriirrkkkkkkkkkkxxkkssiiiinnkkkk"};
