/* XPM */
static char * green_xpm[] = {
"32 32 2 1",
" 	c #00C331",
".	c #8CE1A2",
"                                ",
" ..............  .............. ",
" ..............  .............. ",
" ..............  .............. ",
" ..............  .............. ",
" ..............  .............. ",
" ..............  .............. ",
" ..............  .............. ",
" ..............  .............. ",
" ..............  .............. ",
" ..............  .............. ",
" ..............  .............. ",
" ..............  .............. ",
" ..............  .............. ",
" ..............  .............. ",
"                                ",
"                                ",
" ..............  .............. ",
" ..............  .............. ",
" ..............  .............. ",
" ..............  .............. ",
" ..............  .............. ",
" ..............  .............. ",
" ..............  .............. ",
" ..............  .............. ",
" ..............  .............. ",
" ..............  .............. ",
" ..............  .............. ",
" ..............  .............. ",
" ..............  .............. ",
" ..............  .............. ",
"                                "};
