/* XPM */
static char * south_xpm[] = {
"32 32 3 1",
" 	c #FFFFFF",
".	c #FFA8B5",
"+	c #000000",
"                                ",
" .............................. ",
" .............................. ",
" .............................. ",
" .............................. ",
" .............................. ",
" .............................. ",
" ...........++++++++++......... ",
" .........++++++++++++......... ",
" .........++++++++++++......... ",
" ........+++++......++......... ",
" ........++++.................. ",
" ........++++.................. ",
" ........++++.................. ",
" .........++++++............... ",
" .........++++++++++........... ",
" ..........+++++++++++......... ",
" ............++++++++++........ ",
" .................+++++........ ",
" ..................++++........ ",
" ...................++++....... ",
" ...................++++....... ",
" ........+++.......++++........ ",
" ........++++++++++++++........ ",
" ........+++++++++++++......... ",
" ........++++++++++++.......... ",
" .............................. ",
" .............................. ",
" .............................. ",
" .............................. ",
" .............................. ",
"                                "};
